# xmcd CD database file
#
# Track frame offsets:
#	150
#	27780
#	51120
#	68365
#	86107
#	107151
#	119277
#	136542
#	153142
#	170941
#	185342
#	206910
#	223835
#	238135
#	254105
#
# Disc length: 3594 seconds
#
# Revision: 0
# Processed by: cddbd v1.5.2PL0 Copyright (c) Steve Scherf et al.
# Submitted via: CDex 1.51
#
DISCID=d90e080f
DTITLE=Alberto Barros - Tributo a La Cumbia Colombiana I
DYEAR=2011
DGENRE=Salsa
TTITLE0=Medley Cumbia Colombiana: - La Cadenita - La Colita - La Pollera Colora - Que Nadie Sepa Mi Sufrir - Las Tapas
TTITLE1=A Mi Dios Todo Le Debo
TTITLE2=Que Nadie Sepa Mi Sufrir
TTITLE3=La Pollera Colora
TTITLE4=La Canoa Rancha
TTITLE5=La Cadenita
TTITLE6=Medley: - La Cumbia Del Amor - Las Tapas
TTITLE7=La Colita
TTITLE8=Yo Me Llamo Cumbia
TTITLE9=Las Velas Encendidas
TTITLE10=La Subienda
TTITLE11=Las Calenas
TTITLE12=Medley: - Oye Morena - Loquito Por Ti
TTITLE13=El Pescador
TTITLE14=La Piragua
EXTD=YEAR: 2011
EXTT0=
EXTT1=
EXTT2=
EXTT3=
EXTT4=
EXTT5=
EXTT6=
EXTT7=
EXTT8=
EXTT9=
EXTT10=
EXTT11=
EXTT12=
EXTT13=
EXTT14=
PLAYORDER=
